<svg width="5300" height="1410" viewBox="0 0 5300 1410" fill="none" xmlns="http://www.w3.org/2000/svg">
<g clip-path="url(#clip0_1_15)">
<path d="M535 1115C769.721 1115 960 924.721 960 690C960 455.279 769.721 265 535 265C300.279 265 110 455.279 110 690C110 924.721 300.279 1115 535 1115Z" stroke="black" stroke-width="50"/>
<path d="M241.2 503.4C224.2 499.2 207.2 494.7 191.1 487.5C189.9 489.9 190.2 491.8 190.5 493.5C192.1 505 191.6 516.5 191 528C189.4 557.2 187.6 586.5 188.4 615.8C188.8 631 190.1 646 193.4 660.9C197 677.2 201.5 693.2 212.1 706.7C322 884 268 947 501 1043C335.4 560.4 363 597 328.7 547.8C320.4 536.7 309.1 529.4 296.9 523.4C279.3 514.9 260.9 508.7 241.2 503.4ZM815 773C761.8 491.6 761.9 488.5 761.4 485.1C760.3 477.8 758.5 470.7 756.1 463.8C749.4 445 738.9 428.2 728.8 411.1C715.5 388.6 700.1 367.4 688.5 343.9C685.2 337.3 680.9 331.3 676.6 324.2C675.9 326.1 675.6 326.9 675.4 327.7C671.3 343.7 664.6 358.8 656.8 373.3C645.2 394.9 629.9 413.8 613.8 432.1C603 444.4 594.7 458.3 591.9 474.6C590.6 482.5 590 490.4 567 591C550 798 579 878 641 876L815 773Z" fill="#FAF8F5" stroke="black" stroke-width="22" stroke-linejoin="round"/>
<path d="M457.7 895.9C458.7 897.1 459.9 898.4 460.9 899.6C494.9 941.2 533.2 978 577.6 1008.3C613.2 1032.5 647.5 1058.3 676 1091.1C678 1093.4 679.8 1095.3 683.6 1094.1C687.5 1092.8 689.1 1090.4 689.6 1086.6C693.6 1059.1 697.7 1031.7 700 1004C701.7 981.6 703.2 959.2 703.6 936.7C704.2 903.4 703 870.1 699.8 836.9C697.5 812.2 694.3 787.7 689.1 763.4C680.9 725.9 667.8 689.9 654.1 654.2C638.9 614.6 621.8 576 601 539C578.9 499.8 548.2 470.1 507.7 450.2C478.5 435.9 448.7 422.8 421.3 405.3C391.4 386.3 362 366.7 338.3 340C337.7 339.3 336.9 338.7 335.9 337.9C335.5 338.8 335.1 339.3 335 339.9C334.7 340.9 334.5 341.9 334.4 342.9C333.2 369.7 334.2 396.4 338.8 423C342.3 443.3 345.4 463.6 348.2 484C352 511.9 352.3 540.1 354.1 568.2C355.4 589.3 356.6 610.4 358.1 631.4C360.1 659.2 363.9 686.6 370.4 713.7C386.4 780.4 412.2 842.4 457.7 895.9ZM718.2 1004.3C715.9 1030.6 712.5 1056.8 709 1083.1C711.6 1083.3 713.3 1082.2 715 1081.3C755.4 1061.4 789 1032.8 819 999.8C850 965.9 877 928.9 902 887C916 863 923 845 935 812C955 758 955 745 960 696C964 642 965 606 958 560C945 486 918 418 903 399C901 413 894 423 867 443C847.7 453.8 831.5 462.8 815.3 471.6C789.9 485.3 770.6 505.2 757 530.4C737.1 567.4 723.5 606.8 714.3 647.8C709.2 670.8 706.5 694.3 704.5 717.9C703.4 731.5 702.7 745.2 706.3 759C710.9 776.7 713.2 794.9 715.4 813C717.3 828.5 718.4 844.1 719.7 859.7C721.4 881.6 721.7 903.6 721.7 925.6C721.6 951.6 720.2 977.5 718.2 1004.3ZM481.4 950.1C468.7 937.1 456.9 923.2 445.3 909.3C413.1 870.6 380.8 832.1 343.5 798C318.8 775.4 291.6 756.4 260.7 742.9C234.2 731.4 206.2 726.9 177.9 723.3C146.7 719.3 117.2 710.2 90.4 693.1C81.9 687.7 73.8 681.8 65.8 675C66.4 681.3 66.9 686.9 67.5 692.5C70.5 719.1 76 745.3 83.3 771.1C92.9 805.4 105.6 838.4 122.7 869.7C149 917.8 183.3 959.6 224.1 996.2C249 1018.5 275.8 1038.2 305.4 1053.9C379 1093 458.1 1111.2 540.8 1114.5C576.8 1115.9 612.6 1112.5 647.9 1104.5C651.8 1103.6 656 1103.2 659.6 1100.5C658.9 1099.5 658.4 1098.6 657.8 1097.9C633.1 1071.2 604.7 1048.9 574.8 1028.4C541.3 1005.5 509.6 980.4 481.4 950.1Z" fill="#FAF8F5" stroke="black" stroke-width="22" stroke-linejoin="round"/>
<path d="M1411.63 983.789C1383.64 983.789 1353.69 980.208 1321.79 973.047C1289.89 965.234 1262.87 955.143 1240.73 942.773L1235.85 804.102L1291.52 800.195L1322.77 895.898C1337.74 905.664 1354.34 913.151 1372.57 918.359C1390.8 922.917 1408.38 925.195 1425.3 925.195C1455.9 925.195 1479.34 918.685 1495.62 905.664C1512.54 891.992 1521.01 873.763 1521.01 850.977C1521.01 828.19 1514.17 809.635 1500.5 795.312C1486.83 780.99 1469.25 768.62 1447.77 758.203C1426.28 747.786 1403.49 737.695 1379.41 727.93C1355.32 718.164 1332.53 706.445 1311.05 692.773C1289.56 679.102 1271.98 661.849 1258.31 641.016C1244.64 620.182 1237.8 593.815 1237.8 561.914C1237.8 528.06 1247.24 498.438 1266.12 473.047C1285.66 447.005 1312.67 426.823 1347.18 412.5C1381.68 398.177 1421.4 391.016 1466.32 391.016C1481.95 391.016 1498.22 391.992 1515.15 393.945C1532.08 395.898 1548.35 398.828 1563.98 402.734C1579.6 406.641 1593.27 411.198 1604.99 416.406L1614.76 552.148L1559.09 556.055L1529.8 465.234C1508.31 453.516 1483.9 447.656 1456.55 447.656C1427.26 447.656 1403.49 454.818 1385.27 469.141C1367.69 483.464 1358.9 502.995 1358.9 527.734C1358.9 549.87 1365.73 568.424 1379.41 583.398C1393.08 597.721 1410.66 610.417 1432.14 621.484C1454.28 631.901 1477.39 642.318 1501.48 652.734C1526.22 662.5 1549.33 674.219 1570.81 687.891C1592.95 700.911 1610.85 717.513 1624.52 737.695C1638.2 757.878 1645.03 783.268 1645.03 813.867C1645.03 846.419 1635.27 875.716 1615.73 901.758C1596.2 927.148 1568.86 947.331 1533.7 962.305C1498.55 976.628 1457.86 983.789 1411.63 983.789ZM1672.38 975L1669.45 930.078L1719.25 915.43L1918.47 426.172L1991.71 384.18L2212.41 915.43L2262.22 930.078L2259.29 975H2020.03L2017.1 930.078L2078.62 915.43L2023.94 782.617L2013.2 750.391L1912.61 508.203L1938.98 509.18L1851.09 748.438L1841.32 777.734L1793.47 915.43L1854.99 930.078L1852.06 975H1672.38ZM1820.81 804.102V742.578C1833.18 743.229 1848.16 744.206 1865.73 745.508C1883.96 746.159 1907.08 746.484 1935.07 746.484C1962.41 746.484 1985.2 746.159 2003.43 745.508C2022.31 744.206 2037.61 743.229 2049.33 742.578V803.125C2033.7 803.125 2016.45 802.799 1997.57 802.148C1979.34 801.497 1958.51 801.172 1935.07 801.172C1911.63 801.172 1890.8 801.497 1872.57 802.148C1854.34 802.799 1837.09 803.451 1820.81 804.102ZM2299.33 975L2296.4 930.078L2354.02 915.43C2354.67 912.826 2355.32 905.339 2355.97 892.969C2356.62 879.948 2357.27 863.021 2357.92 842.188C2358.57 820.703 2358.9 796.289 2358.9 768.945L2359.88 603.906C2359.88 577.214 2359.55 553.776 2358.9 533.594C2358.25 512.76 2357.6 496.159 2356.95 483.789C2356.29 471.419 2355.64 464.258 2354.99 462.305L2293.47 446.68L2296.4 401.758H2593.27C2605.64 401.758 2619.64 401.758 2635.27 401.758C2651.54 401.107 2667.49 400.456 2683.12 399.805C2699.39 398.503 2713.39 397.526 2725.11 396.875L2749.52 536.523L2696.79 543.359L2660.66 459.375C2654.15 458.073 2647.31 457.096 2640.15 456.445C2633.64 455.794 2626.8 455.469 2619.64 455.469H2533.7C2523.29 455.469 2512.54 455.794 2501.48 456.445C2490.41 457.096 2481.29 458.073 2474.13 459.375C2474.13 461.979 2473.81 466.211 2473.16 472.07C2473.16 477.279 2473.16 484.44 2473.16 493.555C2473.16 502.669 2473.16 514.388 2473.16 528.711C2473.16 543.034 2473.16 560.612 2473.16 581.445L2474.13 800.195C2474.13 819.076 2474.46 836.979 2475.11 853.906C2475.76 870.182 2476.41 883.854 2477.06 894.922C2477.71 905.99 2478.36 912.826 2479.02 915.43L2558.12 928.125L2555.19 975H2299.33ZM2625.5 787.5L2614.76 718.164C2608.25 716.862 2600.43 715.885 2591.32 715.234C2582.86 714.583 2573.09 714.258 2562.02 714.258H2497.57C2487.15 714.258 2477.39 714.583 2468.27 715.234C2459.81 715.885 2451.35 716.536 2442.88 717.188V653.711C2450.04 654.362 2458.18 655.013 2467.3 655.664C2477.06 656.315 2487.15 656.641 2497.57 656.641H2562.02C2575.04 656.641 2586.11 656.315 2595.23 655.664C2604.34 655.013 2610.85 654.362 2614.76 653.711L2625.5 588.281H2677.26V787.5H2625.5ZM2811.05 975L2808.12 930.078L2865.73 915.43C2866.39 912.826 2867.04 905.339 2867.69 892.969C2868.34 879.948 2868.99 863.021 2869.64 842.188C2870.29 820.703 2870.62 796.289 2870.62 768.945L2871.59 603.906C2871.59 577.214 2871.27 553.776 2870.62 533.594C2869.97 512.76 2869.32 496.159 2868.66 483.789C2868.01 471.419 2867.36 464.258 2866.71 462.305L2805.19 446.68L2808.12 401.758H3104.99C3117.36 401.758 3131.36 401.758 3146.98 401.758C3163.26 401.107 3179.21 400.456 3194.84 399.805C3211.11 398.503 3225.11 397.526 3236.83 396.875L3261.24 536.523L3208.51 543.359L3172.38 459.375C3165.86 458.073 3159.03 457.096 3151.87 456.445C3145.36 455.794 3138.52 455.469 3131.36 455.469H3045.42C3035.01 455.469 3024.26 455.794 3013.2 456.445C3002.13 457.096 2993.01 458.073 2985.85 459.375C2985.85 461.979 2985.53 466.211 2984.88 472.07C2984.88 477.279 2984.88 484.44 2984.88 493.555C2984.88 502.669 2984.88 514.388 2984.88 528.711C2984.88 543.034 2984.88 560.612 2984.88 581.445L2985.85 800.195C2985.85 819.076 2986.18 836.979 2986.83 853.906C2987.48 870.182 2988.13 883.854 2988.78 894.922C2989.43 905.99 2990.08 912.826 2990.73 915.43L3069.84 928.125L3066.91 975H2811.05ZM3137.22 787.5L3126.48 718.164C3119.97 716.862 3112.15 715.885 3103.04 715.234C3094.58 714.583 3084.81 714.258 3073.74 714.258H3009.29C2998.87 714.258 2989.11 714.583 2979.99 715.234C2971.53 715.885 2963.07 716.536 2954.6 717.188V653.711C2961.76 654.362 2969.9 655.013 2979.02 655.664C2988.78 656.315 2998.87 656.641 3009.29 656.641H3073.74C3086.76 656.641 3097.83 656.315 3106.95 655.664C3116.06 655.013 3122.57 654.362 3126.48 653.711L3137.22 588.281H3188.98V787.5H3137.22ZM3321.79 975L3318.86 930.078L3380.38 914.453C3380.38 910.547 3380.38 903.385 3380.38 892.969C3381.03 881.901 3381.36 869.206 3381.36 854.883C3382.01 840.56 3382.34 825.911 3382.34 810.938C3382.99 795.312 3383.31 780.664 3383.31 766.992V610.742C3383.31 582.747 3382.99 558.008 3382.34 536.523C3381.68 515.039 3380.71 497.786 3379.41 484.766C3378.76 471.745 3377.78 463.932 3376.48 461.328L3314.95 446.68L3317.88 401.758H3558.12C3628.43 401.758 3680.84 413.802 3715.34 437.891C3749.85 461.328 3767.1 497.786 3767.1 547.266C3767.1 579.167 3757.66 607.812 3738.78 633.203C3719.9 657.943 3693.86 677.474 3660.66 691.797C3627.45 706.12 3589.37 713.281 3546.4 713.281H3486.83V661.523H3531.75C3566.26 661.523 3593.92 651.432 3614.76 631.25C3635.59 611.068 3646.01 584.049 3646.01 550.195C3646.01 518.294 3637.22 494.206 3619.64 477.93C3602.06 461.003 3576.67 452.539 3543.47 452.539H3499.52C3498.87 454.492 3498.22 459.049 3497.57 466.211C3497.57 473.372 3497.57 483.138 3497.57 495.508C3497.57 507.878 3497.57 522.852 3497.57 540.43C3497.57 557.357 3497.57 577.214 3497.57 600V766.992C3497.57 787.826 3497.57 808.333 3497.57 828.516C3498.22 848.698 3498.87 866.602 3499.52 882.227C3500.83 897.201 3501.8 907.943 3502.45 914.453L3558.12 930.078L3555.19 975H3321.79ZM3815.93 985.742C3782.08 985.742 3751.8 980.208 3725.11 969.141C3699.07 957.422 3674.98 939.193 3652.84 914.453C3631.36 889.714 3610.53 857.487 3590.34 817.773L3531.75 697.656L3627.45 675.195L3739.76 835.352C3755.38 856.836 3770.03 874.74 3783.7 889.062C3797.38 902.734 3811.37 913.477 3825.7 921.289C3840.02 929.102 3855.32 934.961 3871.59 938.867L3870.62 980.859C3861.5 982.812 3852.39 984.115 3843.27 984.766C3834.16 985.417 3825.04 985.742 3815.93 985.742ZM4200.7 983.789C4142.1 983.789 4090.02 971.419 4044.45 946.68C3998.87 921.94 3963.07 887.76 3937.02 844.141C3910.98 800.521 3897.96 750.391 3897.96 693.75C3897.96 635.807 3910.98 584.375 3937.02 539.453C3963.07 493.88 3998.87 458.073 4044.45 432.031C4090.67 405.99 4143.08 392.969 4201.67 392.969C4258.96 392.969 4309.09 405.339 4352.06 430.078C4395.68 454.167 4429.86 488.021 4454.6 531.641C4479.34 574.609 4491.71 624.74 4491.71 682.031C4491.71 730.208 4482.92 773.177 4465.34 810.938C4448.42 848.047 4425.63 879.622 4396.98 905.664C4368.99 931.055 4337.74 950.586 4303.23 964.258C4269.38 977.279 4235.2 983.789 4200.7 983.789ZM4208.51 917.383C4240.41 917.383 4267.43 909.245 4289.56 892.969C4311.7 876.042 4328.3 851.953 4339.37 820.703C4351.09 788.802 4356.95 750.716 4356.95 706.445C4356.95 655.013 4349.78 610.417 4335.46 572.656C4321.79 534.245 4302.58 504.622 4277.84 483.789C4253.1 462.305 4223.81 451.562 4189.95 451.562C4141.78 451.562 4103.69 471.094 4075.7 510.156C4048.35 548.568 4034.68 601.628 4034.68 669.336C4034.68 718.164 4042.17 761.133 4057.14 798.242C4072.11 835.352 4092.62 864.648 4118.66 886.133C4144.71 906.966 4174.65 917.383 4208.51 917.383ZM5036.63 807.031V635.156C5036.63 601.302 5036.31 572.005 5035.66 547.266C5035.66 521.875 5035.01 502.018 5033.7 487.695C5033.05 472.721 5032.08 463.932 5030.77 461.328L4963.39 446.68L4966.32 401.758H5166.52L5169.45 446.68L5107.92 461.328C5107.27 463.932 5106.29 472.721 5104.99 487.695C5104.34 502.018 5103.69 521.875 5103.04 547.266C5102.39 572.005 5102.06 601.302 5102.06 635.156V836.328C5102.06 863.672 5102.06 888.737 5102.06 911.523C5102.71 934.31 5103.04 957.096 5103.04 979.883H5048.35L4667.49 516.992L4708.51 516.016V732.812C4708.51 769.271 4708.83 800.521 4709.48 826.562C4710.14 852.604 4710.79 873.112 4711.44 888.086C4712.74 902.409 4714.04 911.523 4715.34 915.43L4782.73 930.078L4779.8 975H4576.67L4573.74 930.078L4635.27 915.43C4636.57 911.523 4637.54 902.083 4638.2 887.109C4638.85 871.484 4639.5 850.651 4640.15 824.609C4640.8 797.917 4641.12 767.318 4641.12 732.812V590.234C4641.12 567.448 4640.8 546.94 4640.15 528.711C4639.5 509.831 4638.52 494.531 4637.22 482.812C4636.57 471.094 4635.92 463.932 4635.27 461.328L4573.74 446.68L4576.67 401.758H4724.13L5068.86 807.031H5036.63Z" fill="black"/>
</g>
<defs>
<clipPath id="clip0_1_15">
<rect width="5300" height="1410" fill="white"/>
</clipPath>
</defs>
</svg>
