<svg width="32" height="32" viewBox="0 0 32 32" fill="none" xmlns="http://www.w3.org/2000/svg">
  <!-- Background: White rounded square with subtle gradient -->
  <rect width="32" height="32" rx="6" fill="url(#gradient)"/>
  <defs>
    <linearGradient id="gradient" x1="0" y1="0" x2="32" y2="32" gradientUnits="userSpaceOnUse">
      <stop offset="0%" stop-color="#ffffff"/>
      <stop offset="50%" stop-color="#e4e4e7"/>
      <stop offset="100%" stop-color="#a1a1aa"/>
    </linearGradient>
  </defs>
  <!-- Sparkles/Stars icon (Promora logo) - centered -->
  <g transform="translate(8, 8)">
    <!-- Main sparkle/star -->
    <path d="M8 2L9.09 5.26L12.36 6.35L9.09 7.44L8 10.7L6.91 7.44L3.64 6.35L6.91 5.26L8 2Z" fill="#000000"/>
    <!-- Small sparkles around -->
    <path d="M2 4L2.5 5.5L4 6L2.5 6.5L2 8L1.5 6.5L0 6L1.5 5.5L2 4Z" fill="#000000" opacity="0.8"/>
    <path d="M14 4L14.5 5.5L16 6L14.5 6.5L14 8L13.5 6.5L12 6L13.5 5.5L14 4Z" fill="#000000" opacity="0.8"/>
    <path d="M8 12L8.5 13L9.5 13L8.5 14L8 15L7.5 14L6.5 13L7.5 13L8 12Z" fill="#000000" opacity="0.6"/>
  </g>
</svg>