<svg xmlns="http://www.w3.org/2000/svg" width="148" height="24" viewBox="0 0 148 24" fill="none"><path d="M26.5235 0L14.38 1.73914L13.2617 4.86958L12.1435 1.73914L0 0L4.05887 11.3127L9.04548 12.027L13.2638 23.8386L17.4821 12.027L22.4667 11.3127L26.5235 0ZM22.5164 4.86751L17.5194 5.58387L16.7138 7.84268L21.7067 7.12839L20.8949 9.39134L15.9062 10.1056L13.2597 17.5156L10.6131 10.1056L5.62443 9.39134L4.81266 7.12839L9.80548 7.84268L8.99992 5.58387L4.00295 4.86751L3.19118 2.60456L10.5696 3.66254L13.2597 11.1947L15.9497 3.66254L23.3281 2.60456L22.5164 4.86751V4.86751Z" fill="#1062FB"></path><path d="M28.9008 11.0767C28.9008 10.3293 28.9857 9.57563 29.1534 8.81579C29.3232 8.05596 29.609 7.28991 30.0128 6.51351C30.4166 5.73918 30.9157 5.05388 31.508 4.46174C32.1002 3.86754 32.8623 3.38099 33.7983 3.00418C34.7323 2.62737 35.7677 2.43689 36.9067 2.43689C37.7329 2.43689 38.5012 2.52799 39.2115 2.70811C39.9218 2.88824 40.5348 3.13047 41.0484 3.43068C41.5619 3.73089 42.0279 4.08286 42.4441 4.48866C42.8604 4.89239 43.2021 5.31061 43.4692 5.73711C43.7363 6.16361 43.9621 6.61289 44.1484 7.07873C44.3327 7.54457 44.4694 7.97107 44.5543 8.35617C44.6392 8.74126 44.6931 9.11186 44.7158 9.4659H42.1024C42.0092 7.9483 41.4998 6.76403 40.5741 5.91102C39.6485 5.05802 38.4764 4.63358 37.0558 4.63358C36.2999 4.63358 35.5834 4.77851 34.9083 5.06837C34.2332 5.35823 33.6389 5.76816 33.1253 6.30026C32.6117 6.83235 32.2058 7.50937 31.9035 8.33132C31.6032 9.15327 31.452 10.0684 31.452 11.0787C31.452 12.0891 31.6053 12.9628 31.9097 13.7682C32.2141 14.5736 32.6262 15.2382 33.1481 15.7578C33.6699 16.2796 34.2684 16.6792 34.9476 16.9608C35.6269 17.2423 36.3517 17.3831 37.1241 17.3831C38.5447 17.3831 39.7106 16.9835 40.6259 16.1844C41.5392 15.3852 42.032 14.2817 42.1004 12.8759H44.7138C44.6827 13.4224 44.5854 13.9773 44.4197 14.5405C44.254 15.1036 43.9786 15.6916 43.5976 16.3086C43.2145 16.9256 42.7465 17.4701 42.1894 17.9442C41.6344 18.4183 40.9096 18.8096 40.0171 19.1181C39.1246 19.4266 38.1305 19.5798 37.0351 19.5798C35.9396 19.5798 34.842 19.3935 33.8977 19.0187C32.9513 18.6461 32.1768 18.1637 31.5722 17.5757C30.9675 16.9877 30.458 16.3106 30.0439 15.5487C29.6276 14.7868 29.3336 14.0311 29.1617 13.2837C28.9898 12.5363 28.9028 11.8013 28.9028 11.0767H28.9008Z" fill="#0A1122"></path><path d="M45.8962 13.0476C45.8962 11.8509 46.1654 10.7578 46.7059 9.76397C47.2464 8.77225 47.9919 7.99171 48.9445 7.42442C49.8971 6.85713 50.9512 6.57349 52.1067 6.57349C53.2623 6.57349 54.308 6.85713 55.2565 7.42442C56.207 7.99171 56.9525 8.77018 57.4971 9.76397C58.0418 10.7557 58.3131 11.8509 58.3131 13.0476C58.3131 14.2443 58.0438 15.3416 57.5034 16.3416C56.9629 17.3416 56.2153 18.1284 55.2627 18.7102C54.3101 19.2899 53.256 19.5797 52.1067 19.5797C50.9574 19.5797 49.8971 19.2899 48.9445 18.7081C47.9919 18.1284 47.2464 17.3396 46.7059 16.3416C46.1675 15.3458 45.8962 14.2485 45.8962 13.0476V13.0476ZM48.2653 13.0476C48.2653 14.3064 48.6318 15.3975 49.3628 16.3209C50.0959 17.2443 51.0092 17.706 52.1026 17.706C53.196 17.706 54.0906 17.2443 54.8299 16.3209C55.5692 15.3975 55.9399 14.3064 55.9399 13.0476C55.9399 11.7888 55.5692 10.7329 54.8299 9.83851C54.0906 8.94203 53.1794 8.49482 52.1026 8.49482C51.0257 8.49482 50.0939 8.94203 49.3628 9.83851C48.6318 10.735 48.2653 11.8033 48.2653 13.0476V13.0476Z" fill="#0A1122"></path><path d="M59.3631 12.9544C59.3631 11.8323 59.6158 10.7805 60.1211 9.79915C60.6264 8.81778 61.316 8.03516 62.1899 7.45131C63.0638 6.86746 64.0101 6.57346 65.0269 6.57346C65.5985 6.57346 66.1348 6.6687 66.6401 6.86125C67.1454 7.05379 67.5782 7.30845 67.9406 7.63144C68.303 7.95235 68.6074 8.28154 68.8539 8.61488C69.1003 8.94821 69.3074 9.29811 69.4772 9.66457V2.71423H71.8462V19.2899H69.4772V16.5362C69.092 17.4224 68.5329 18.1532 67.7998 18.7226C67.0688 19.294 66.197 19.5797 65.1864 19.5797C64.385 19.5797 63.6208 19.3955 62.8919 19.029C62.1629 18.6625 61.5438 18.1781 61.0302 17.5756C60.5166 16.9731 60.1107 16.2691 59.8105 15.4617C59.5102 14.6563 59.359 13.8199 59.359 12.9544H59.3631ZM61.7322 12.9772C61.7322 13.7495 61.8896 14.4969 62.2002 15.2195C62.5108 15.942 62.9768 16.5487 63.5939 17.0393C64.211 17.53 64.9068 17.7743 65.6855 17.7743C66.4165 17.7743 67.0812 17.559 67.6735 17.1304C68.2657 16.7019 68.7234 16.1408 69.0423 15.4513C69.3633 14.7598 69.5227 14.0166 69.5227 13.2215C69.5227 12.6501 69.4337 12.0807 69.2577 11.5114C69.0796 10.9441 68.8311 10.4244 68.5122 9.95236C68.1912 9.4803 67.7791 9.10142 67.2697 8.81156C66.7602 8.52171 66.2032 8.37678 65.5923 8.37678C64.8613 8.37678 64.1944 8.60245 63.5918 9.05587C62.9892 9.50722 62.5295 10.0828 62.2106 10.7826C61.8896 11.4824 61.7301 12.2132 61.7301 12.9793L61.7322 12.9772Z" fill="#0A1122"></path><path d="M73.2522 13.1408C73.2522 11.9545 73.4966 10.8634 73.9873 9.86956C74.4761 8.87577 75.1843 8.07867 76.1141 7.47618C77.0439 6.87369 78.1001 6.57349 79.2887 6.57349C81.0697 6.57349 82.513 7.21324 83.6189 8.49275C84.7247 9.77226 85.2963 11.4058 85.3356 13.3934H75.6233C75.6233 14.6646 75.9774 15.7122 76.6877 16.5363C77.396 17.3623 78.3444 17.7744 79.531 17.7744C80.3407 17.7744 81.0552 17.5715 81.6764 17.1677C82.2956 16.764 82.7346 16.176 82.9893 15.4058L84.9546 16.2609C84.5528 17.2319 83.9026 18.0269 82.9997 18.6481C82.0968 19.2692 80.9723 19.5797 79.6242 19.5797C77.7273 19.5797 76.1928 18.9731 75.0166 17.7599C73.8424 16.5466 73.2543 15.0083 73.2543 13.1429L73.2522 13.1408ZM75.6917 11.8571H82.8713C82.7408 10.7557 82.3391 9.90062 81.6681 9.29192C80.9972 8.68323 80.2123 8.37888 79.3094 8.37888C78.4065 8.37888 77.5741 8.69979 76.899 9.33954C76.2239 9.9793 75.8221 10.8178 75.6917 11.8592V11.8571Z" fill="#0A1122"></path><path d="M86.9301 12.8282H89.5435C89.5435 13.6605 89.6781 14.3893 89.9473 15.0125C90.2165 15.6378 90.581 16.1222 91.0386 16.468C91.4963 16.8138 91.9871 17.0705 92.511 17.2361C93.0349 17.4017 93.592 17.4846 94.1863 17.4846C94.878 17.4846 95.522 17.3893 96.1143 17.1947C96.7065 17.0001 97.1953 16.704 97.5804 16.3044C97.9656 15.9048 98.1582 15.4287 98.1582 14.8821C98.1582 14.6419 98.1189 14.4245 98.0422 14.2237C97.9656 14.0229 97.8641 13.8469 97.742 13.6916C97.6177 13.5363 97.4458 13.3914 97.2222 13.2527C96.9985 13.1139 96.7769 12.9939 96.5574 12.8945C96.3379 12.7951 96.0418 12.6874 95.6711 12.5736C95.3004 12.4597 94.9712 12.3686 94.6875 12.3024C94.4038 12.234 94.0372 12.1471 93.5858 12.0373C92.9521 11.8862 92.4634 11.7682 92.1237 11.6874C91.7841 11.6067 91.3244 11.4721 90.7425 11.2899C90.1606 11.1057 89.7071 10.9069 89.384 10.6957C89.061 10.4845 88.7213 10.2257 88.3672 9.92346C88.0131 9.61911 87.7563 9.25679 87.5989 8.83443C87.4395 8.41207 87.3608 7.93795 87.3608 7.4162C87.3608 6.76817 87.4913 6.14912 87.7543 5.5632C88.0173 4.97727 88.4004 4.44725 88.9056 3.97727C89.4109 3.50729 90.0715 3.13254 90.8895 2.85511C91.7075 2.57768 92.6332 2.43689 93.6665 2.43689C94.5839 2.43689 95.4143 2.5549 96.1536 2.78886C96.895 3.02488 97.5121 3.33751 98.005 3.73089C98.4999 4.12427 98.912 4.59011 99.2433 5.12841C99.5747 5.66879 99.8149 6.22986 99.9619 6.81579C100.109 7.40171 100.181 8.01455 100.181 8.6543H97.568C97.568 7.31061 97.2429 6.28577 96.5926 5.58183C95.9424 4.87789 94.9898 4.52799 93.7369 4.52799C92.5752 4.52799 91.6578 4.78472 90.9848 5.29611C90.3118 5.80957 89.9742 6.44105 89.9742 7.1926C89.9742 7.48246 90.0384 7.73919 90.1689 7.96693C90.2993 8.19468 90.4546 8.38308 90.6389 8.53008C90.8233 8.67708 91.0925 8.82615 91.4507 8.97522C91.809 9.12428 92.2024 9.24851 92.629 9.34996C93.0556 9.45141 93.5195 9.56321 94.0186 9.68329C94.3893 9.77232 94.7268 9.85307 95.0333 9.92553C95.3398 10.0001 95.6856 10.0974 96.0749 10.2195C96.4643 10.3417 96.8059 10.4618 97.1041 10.5756C97.4023 10.6916 97.7192 10.8282 98.0526 10.9876C98.386 11.1491 98.6801 11.3168 98.9306 11.4928C99.1812 11.6688 99.4297 11.8738 99.6679 12.1057C99.9081 12.3396 100.107 12.5839 100.262 12.8386C100.418 13.0953 100.542 13.3831 100.633 13.704C100.726 14.0249 100.774 14.3645 100.774 14.7247C100.774 16.1181 100.171 17.2755 98.9638 18.1968C97.7565 19.116 96.164 19.5777 94.1905 19.5777C91.9374 19.5777 90.1668 18.9732 88.8746 17.7641C87.5824 16.555 86.9383 14.909 86.9383 12.8282H86.9301Z" fill="#0A1122"></path><path d="M102.194 19.2898V6.86328H104.564V19.2898H102.194Z" fill="#0A1122"></path><path d="M106.141 13.0352C106.141 12.2112 106.282 11.4079 106.564 10.6253C106.845 9.84265 107.229 9.15321 107.713 8.55694C108.198 7.96066 108.796 7.48033 109.504 7.11801C110.213 6.75569 110.973 6.57556 111.782 6.57556C112.7 6.57556 113.536 6.78881 114.292 7.21739C115.048 7.64596 115.56 8.19669 115.829 8.87371V6.89026H118.198V18.5839C118.198 19.2692 118.086 19.9172 117.862 20.5259C117.639 21.1346 117.305 21.6853 116.862 22.1781C116.419 22.6709 115.833 23.0622 115.104 23.3499C114.375 23.6398 113.545 23.7827 112.613 23.7827C111.857 23.7827 111.157 23.6854 110.509 23.4928C109.861 23.3003 109.322 23.0518 108.889 22.7475C108.459 22.4431 108.086 22.0994 107.775 21.7185C107.463 21.3375 107.237 20.9648 107.098 20.6025C106.959 20.2402 106.887 19.8986 106.879 19.5735H109.341C109.386 20.2899 109.73 20.8945 110.37 21.3872C111.01 21.88 111.749 22.1263 112.59 22.1263C113.015 22.1263 113.416 22.0559 113.799 21.911C114.18 21.7682 114.53 21.5591 114.851 21.2858C115.172 21.0104 115.425 20.6398 115.613 20.1719C115.802 19.704 115.897 19.1677 115.897 18.5653V16.2816C115.781 16.6149 115.628 16.9276 115.435 17.2174C115.243 17.5073 114.992 17.793 114.684 18.0725C114.375 18.352 113.98 18.5715 113.499 18.7288C113.017 18.8882 112.476 18.9669 111.873 18.9669C110.24 18.9669 108.875 18.4038 107.781 17.2795C106.688 16.1553 106.139 14.7371 106.139 13.0269L106.141 13.0352ZM108.51 12.9897C108.51 14.3002 108.898 15.3706 109.672 16.1988C110.447 17.0269 111.362 17.441 112.418 17.441C113.474 17.441 114.334 17.0166 114.996 16.1657C115.659 15.3147 115.99 14.2878 115.99 13.0828C115.99 12.294 115.852 11.5611 115.574 10.8861C115.297 10.2112 114.87 9.65632 114.296 9.21946C113.723 8.78261 113.058 8.56315 112.302 8.56315C111.2 8.56315 110.293 8.99172 109.579 9.84472C108.867 10.6998 108.51 11.7474 108.51 12.9897V12.9897Z" fill="#0A1122"></path><path d="M119.826 19.2899V6.86335H122.195V10.1801C122.557 9.09317 123.129 8.22153 123.909 7.56314C124.69 6.90475 125.651 6.57556 126.792 6.57556C128.177 6.57556 129.26 7.05797 130.041 8.0207C130.822 8.98344 131.213 10.3023 131.213 11.9731V19.2899H128.844V13.1408C128.844 10.0435 127.888 8.49482 125.972 8.49482C125.378 8.49482 124.833 8.64803 124.34 8.95238C123.845 9.25673 123.448 9.65218 123.147 10.1367C122.847 10.6211 122.613 11.1511 122.447 11.7267C122.282 12.3023 122.199 12.8717 122.199 13.4431V19.292H119.83L119.826 19.2899Z" fill="#0A1122"></path><path d="M132.59 16.2154C132.59 15.7992 132.684 15.4079 132.868 15.0414C133.052 14.675 133.284 14.3603 133.562 14.0932C133.839 13.8261 134.197 13.5673 134.636 13.3127C135.075 13.058 135.494 12.8489 135.891 12.6832C136.289 12.5176 136.753 12.3375 137.285 12.1449L141.24 10.7246V10.6439C141.24 10.4431 141.189 10.2236 141.085 9.98552C140.982 9.74742 140.824 9.50311 140.617 9.25259C140.41 9.00208 140.11 8.79504 139.72 8.62733C139.331 8.4617 138.89 8.37889 138.397 8.37889C137.418 8.37889 136.637 8.68945 136.055 9.31057C135.473 9.93169 135.177 10.7888 135.171 11.882H132.731C132.771 10.294 133.301 9.0145 134.324 8.03934C135.347 7.06418 136.689 6.57764 138.352 6.57764C139.888 6.57764 141.149 7.00621 142.135 7.8675C143.121 8.72878 143.612 9.90684 143.612 11.41V19.292H141.242V15.6274C140.872 16.8054 140.309 17.7599 139.549 18.4887C138.789 19.2174 137.844 19.5798 136.709 19.5798C135.508 19.5798 134.52 19.2526 133.75 18.5963C132.98 17.9421 132.595 17.147 132.595 16.2154H132.59ZM135.1 15.9959C135.1 16.4265 135.303 16.8137 135.707 17.1512C136.111 17.4907 136.645 17.6605 137.308 17.6605C137.971 17.6605 138.542 17.4762 139.07 17.1056C139.598 16.735 140.012 16.2754 140.313 15.7247C140.613 15.1739 140.843 14.6211 141 14.0663C141.158 13.5114 141.238 13.0021 141.238 12.5404L137.805 13.7536C136.933 14.0539 136.266 14.3851 135.798 14.7474C135.332 15.1098 135.098 15.5259 135.098 15.9959H135.1Z" fill="#0A1122"></path><path d="M145.328 19.2899V2.71423H147.697V19.2899H145.328Z" fill="#0A1122"></path><path d="M104.702 2.71838H102.043V5.25462H104.702V2.71838Z" fill="#0A1122"></path></svg>